<svg xmlns="http://www.w3.org/2000/svg" viewBox="0 0 998.78 215.84"><defs><style>.cls-1{fill:#509999;}</style></defs><title>wond-teal</title><g id="Layer_2" data-name="Layer 2"><g id="Layer_1-2" data-name="Layer 1"><path class="cls-1" d="M107.91,215.84A107.92,107.92,0,1,1,215.83,107.92,108,108,0,0,1,107.91,215.84Zm0-211A103.13,103.13,0,1,0,211,107.92,103.24,103.24,0,0,0,107.91,4.79Z"/><polygon class="cls-1" points="198.6 110.63 172.24 103.56 172.24 109.41 160.2 109.41 159.43 111.84 172.24 111.84 172.24 117.69 198.6 110.63"/><polygon class="cls-1" points="21.5 119.28 42.72 119.28 43.1 118.84 50.14 111.85 29.06 111.85 21.5 119.28"/><path class="cls-1" d="M42.66,102.26H21.5l7.56,7.18H50.14A45.72,45.72,0,0,1,42.66,102.26Z"/><polygon class="cls-1" points="85.85 109.41 50.17 109.41 50.17 111.84 84.97 111.84 85.85 109.41"/><polygon class="cls-1" points="147.37 109.41 98.31 109.41 97.44 111.84 146.6 111.84 147.37 109.41"/><polygon class="cls-1" points="49.33 63.92 46.07 63.92 58.97 105.01 62.21 105.01 49.33 63.92"/><polygon class="cls-1" points="109.38 64.66 109.02 63.92 106.71 63.92 76.06 149.19 65.77 116.34 62.52 116.34 75.87 158.9 107.92 69.73 120.6 105.01 123.89 105.01 109.38 64.66"/><polygon class="cls-1" points="169.75 63.92 166.51 63.92 139.76 149.19 127.96 116.34 124.67 116.34 139.97 158.9 169.75 63.92"/><path class="cls-1" d="M386.82,54.27,370.56,162.35c0,.1-.06.17-.07.26a2.57,2.57,0,0,1-.61,1.76,3.47,3.47,0,0,1-2.57,1.06c-2.34.13-3.3-1.12-3.5-2.4L344,114l-19.83,49c-.18,1.28-1.15,2.53-3.48,2.4a3.49,3.49,0,0,1-2.57-1.06,2.57,2.57,0,0,1-.61-1.76c0-.09-.07-.16-.07-.26L301.16,54.27A2.59,2.59,0,0,1,302,51.7a3.23,3.23,0,0,1,2.1-.92,3.13,3.13,0,0,1,2.7.56A2.77,2.77,0,0,1,308,53.42L322.56,149l18.24-45.34a3.43,3.43,0,0,1,3.15-2.26H344a3.43,3.43,0,0,1,3.15,2.26L365.42,149,380,53.42a2.74,2.74,0,0,1,1.25-2.08,3.11,3.11,0,0,1,2.69-.56,3.26,3.26,0,0,1,2.11.92A2.66,2.66,0,0,1,386.82,54.27Z"/><path class="cls-1" d="M551.26,162.15c0,1.44-.91,3-3.47,3a3.51,3.51,0,0,1-2.66-.94c-.11-.13-13-26-25.32-50.9v-.07L497.27,67.87v94.2c0,1.41-.87,3-3.31,3.05h-.13c-3.15-.11-3.4-2.37-3.4-3.05V53.48c0-1.45.91-3,3.45-3a3.52,3.52,0,0,1,2.66.94c.16.16,20.37,40.9,34.49,69.36h0l13.4,26.93V53.55c0-1.41.86-2.95,3.31-3h.11c3.17.12,3.41,2.37,3.41,3Z"/><path class="cls-1" d="M626.55,67.89A22.37,22.37,0,0,1,628.27,77v61.88a22,22,0,0,1-1.72,9.13,18,18,0,0,1-11,9.89,24.42,24.42,0,0,1-7.49,1.17H586.67V56.8H608A23.21,23.21,0,0,1,615.49,58a20.15,20.15,0,0,1,6.5,3.63A17.26,17.26,0,0,1,626.55,67.89Zm8.38,9.1c-.06-8.63-3.11-15.46-9.06-20.33a25.53,25.53,0,0,0-8.24-4.5,30.39,30.39,0,0,0-9.6-1.54H583.48c-2.56,0-3.47,1.54-3.47,3V162.2c0,.68.24,2.92,3.47,3.05H608a30.39,30.39,0,0,0,9.6-1.54,25.44,25.44,0,0,0,8.19-4.47c6-4.67,9.11-11.52,9.11-20.36Z"/><path class="cls-1" d="M701.5,111.59c2.54,0,3.45,1.55,3.45,3,0,2-1.33,3.21-3.45,3.21H669.44v41.29h42.65a3.46,3.46,0,0,1,2.62,1,3,3,0,0,1,.75,2.26c0,1.33-.87,2.87-3.31,3h-46c-2.5-.1-3.38-1.64-3.38-3.05V53.75A3,3,0,0,1,666,50.62h46.09a3.46,3.46,0,0,1,2.62,1,3,3,0,0,1,.75,2.25c0,1.34-.87,2.89-3.31,3H669.44v54.79Z"/><path class="cls-1" d="M777.81,109.25a13,13,0,0,1-6.7,2H747.25V57h23.86a12.77,12.77,0,0,1,6.64,2,23.17,23.17,0,0,1,6.3,5.84,31.15,31.15,0,0,1,4.48,9,34.32,34.32,0,0,1,1.62,10.39,33.85,33.85,0,0,1-1.62,10.24,31.09,31.09,0,0,1-4.48,9A21.55,21.55,0,0,1,777.81,109.25Zm23.39,52.87-.05-.41a8.41,8.41,0,0,0-.37-.93l-22.44-44.56A28.13,28.13,0,0,0,789.63,107,39.8,39.8,0,0,0,797,84.2,39.76,39.76,0,0,0,795.05,72a37.38,37.38,0,0,0-5.42-10.78,26.87,26.87,0,0,0-8.54-7.73,20.36,20.36,0,0,0-10-2.69H743.8a2.86,2.86,0,0,0-3.21,3v108.3c0,1.8,1.2,3,3.25,3,2.52-.09,3.41-1.64,3.41-3V117.62h23.86c.22,0,.42,0,.62,0l23,45.83a3.5,3.5,0,0,0,3.11,1.67h1.06l.34-.18a3.55,3.55,0,0,0,1.56-1.53A2.33,2.33,0,0,0,801.2,162.12Z"/><path class="cls-1" d="M829.66,165.25h-.13c-3.15-.13-3.4-2.37-3.4-3.05V53.59c0-1.43.92-3,3.46-3a3.46,3.46,0,0,1,2.66,1,2.73,2.73,0,0,1,.72,2.11V162.2C833,163.61,832.1,165.15,829.66,165.25Z"/><path class="cls-1" d="M910.06,160.77a30.85,30.85,0,0,1-9.21,4.31,40.14,40.14,0,0,1-11.14,1.52,52,52,0,0,1-9.52-1,24.66,24.66,0,0,1-10.41-4.7c-6.23-4.78-9.38-11.73-9.38-20.68a3,3,0,0,1,3.22-3.13,3.09,3.09,0,0,1,3.44,3c0,4.68.84,8.34,2.49,11a17.93,17.93,0,0,0,6.08,6.08,20.94,20.94,0,0,0,7.53,2.66,49,49,0,0,0,6.55.59,35.2,35.2,0,0,0,8.73-1.12,23.91,23.91,0,0,0,7.68-3.45,17.15,17.15,0,0,0,5.34-6.16,20.1,20.1,0,0,0,2-9.47,27.46,27.46,0,0,0-2.16-11.35,32.09,32.09,0,0,0-5.81-8.75,43.38,43.38,0,0,0-8.25-6.94l-18.77-12a54.6,54.6,0,0,1-8.17-6.56c-5.45-5.74-8.19-12.19-8.19-19.21V73a21.53,21.53,0,0,1,.67-4.89A33.33,33.33,0,0,1,865,62.19,20.33,20.33,0,0,1,869.67,56c4.85-4.54,11.66-6.85,20.21-6.85,8.71,0,15.44,2.32,20,6.89A18.57,18.57,0,0,1,914,62.47a32.85,32.85,0,0,1,1.62,6.13,21.41,21.41,0,0,1,.28,5c-.12,1.1-.16,1.73-.18,1.89-.41,2.2-1.79,3.19-3.87,2.85a3.4,3.4,0,0,1-2.46-1.38,2.82,2.82,0,0,1-.31-2.18l.07-1.5a23.41,23.41,0,0,0-.16-3.77,18,18,0,0,0-1.24-4.64,14,14,0,0,0-3-4.51c-3.09-3.29-8.09-4.95-14.89-4.95s-11.9,1.68-15.33,5A14.06,14.06,0,0,0,871.17,65a28.34,28.34,0,0,0-1.69,4.9,17.49,17.49,0,0,0-.52,3.74v1.65a18.52,18.52,0,0,0,1.79,8.34,27.11,27.11,0,0,0,4.87,6.84,44.27,44.27,0,0,0,7.08,5.87l8.59,5.53c3.38,2.05,6.79,4.24,10.07,6.48a56.3,56.3,0,0,1,9.25,7.85,34.33,34.33,0,0,1,9.54,24C920.15,149,916.75,155.9,910.06,160.77Z"/><path class="cls-1" d="M995.32,57H970v105.1a3.33,3.33,0,0,1-6.65.07l0-105.17H937.51C935,57,934,55.3,934,53.75s.91-3,3.47-3h57.81c2.55,0,3.46,1.53,3.46,3S997.87,57,995.32,57Z"/><path class="cls-1" d="M435,166.74c-15,0-27.26-11.14-27.26-24.83V73.46c0-13.69,12.23-24.84,27.26-24.84s27.27,11.15,27.27,24.84v68.45C462.22,155.6,450,166.74,435,166.74Zm0-111.46c-11.36,0-20.6,8.16-20.6,18.18v68.45c0,10,9.24,18.17,20.6,18.17s20.61-8.15,20.61-18.17V73.46C455.56,63.44,446.31,55.28,435,55.28Z"/></g></g></svg>